<?xml version="1.0" standalone="no"?>
<!DOCTYPE svg PUBLIC "-//W3C//DTD SVG 20010904//EN"
 "http://www.w3.org/TR/2001/REC-SVG-20010904/DTD/svg10.dtd">
<svg version="1.0" xmlns="http://www.w3.org/2000/svg"
 width="512.000000pt" height="512.000000pt" viewBox="0 0 512.000000 512.000000"
 preserveAspectRatio="xMidYMid meet">
<metadata>
Created by potrace 1.14, written by Peter Selinger 2001-2017
</metadata>
<g transform="translate(0.000000,512.000000) scale(0.100000,-0.100000)"
fill="#000000" stroke="none">
<path d="M2485 4131 c-258 -30 -512 -126 -695 -261 -88 -65 -115 -97 -131
-150 -33 -110 63 -214 169 -182 21 6 80 39 132 73 240 154 418 206 680 196
112 -3 147 -9 203 -30 180 -67 260 -180 260 -367 0 -202 -69 -342 -314 -638
-205 -247 -309 -449 -344 -667 -37 -225 -6 -315 106 -315 82 0 106 32 129 175
38 231 135 396 404 685 285 306 387 515 388 791 0 350 -225 598 -612 675 -92
18 -280 26 -375 15z"/>
<path d="M2450 1447 c-50 -16 -126 -93 -139 -142 -26 -94 -8 -186 47 -247 51
-57 101 -78 187 -78 151 0 235 87 235 243 0 151 -90 239 -241 236 -30 -1 -70
-6 -89 -12z"/>
</g>
</svg>
